<?xml version="1.0" encoding="UTF-8" standalone="no"?>
<!DOCTYPE svg PUBLIC "-//W3C//DTD SVG 1.1//EN" "http://www.w3.org/Graphics/SVG/1.1/DTD/svg11.dtd">
<svg version="1.1" xmlns="http://www.w3.org/2000/svg" xmlns:xlink="http://www.w3.org/1999/xlink" preserveAspectRatio="xMidYMid meet" viewBox="0 0 640 640" width="640" height="640"><defs><path d="M22.54 19.95L640 19.95L640 640L22.54 640L22.54 19.95Z" id="c509prXNq"></path><path d="M475.77 328.45L623.68 585.62L631.92 604.78L628.75 613.54L615.33 618.4L599.86 618.4L323.83 618.4L84.91 618.4L69.45 618.4L52.44 618.4L42.54 601.08L47.49 588.09L56.15 570.77L181.16 333.09L323.83 47.78L475.77 328.45Z" id="bMGOM0bm8"></path><path d="M385.07 126.77L448.08 213.37L322.06 213.37L196.06 213.37L259.05 126.77L322.06 40.17L385.07 126.77Z" id="g2bLd1RqZP"></path><path d="M368.68 44.51C374.23 44.51 378.73 49.01 378.73 54.56C378.73 83.17 378.73 158.94 378.73 187.55C378.73 193.1 374.23 197.6 368.68 197.6C366.67 197.6 370.69 197.6 368.68 197.6C363.13 197.6 358.63 193.1 358.63 187.55C358.63 158.94 358.63 83.17 358.63 54.56C358.63 49.01 363.13 44.51 368.68 44.51C370.69 44.51 366.67 44.51 368.68 44.51Z" id="a2AEESP6iB"></path><path d="M434.05 33.89C438.74 33.89 442.55 37.69 442.55 42.39C442.55 44.09 442.55 40.69 442.55 42.39C442.55 47.09 438.74 50.9 434.05 50.9C396.16 50.9 291 50.9 253.12 50.9C248.42 50.9 244.61 47.09 244.61 42.39C244.61 40.69 244.61 44.09 244.61 42.39C244.61 37.69 248.42 33.89 253.12 33.89C291 33.89 396.16 33.89 434.05 33.89Z" id="bvRBHccdC"></path><path d="M388.96 86.26C391.45 86.26 393.48 88.28 393.48 90.78C393.48 93.28 393.48 96.25 393.48 98.75C393.48 101.25 391.45 103.27 388.96 103.27C368.83 103.27 312.97 103.27 292.84 103.27C290.34 103.27 288.32 101.25 288.32 98.75C288.32 96.25 288.32 93.28 288.32 90.78C288.32 88.28 290.34 86.26 292.84 86.26C312.97 86.26 368.83 86.26 388.96 86.26Z" id="g1IRS37eM2"></path><path d="M390.5 129.59C393 129.59 395.02 131.61 395.02 134.11C395.02 136.61 395.02 139.59 395.02 142.08C395.02 144.58 393 146.6 390.5 146.6C370.38 146.6 314.51 146.6 294.39 146.6C291.89 146.6 289.87 144.58 289.87 142.08C289.87 139.59 289.87 136.61 289.87 134.11C289.87 131.61 291.89 129.59 294.39 129.59C314.51 129.59 370.38 129.59 390.5 129.59Z" id="e2WjFGvikD"></path><path d="M431.61 455.8C431.61 510.45 387.25 554.82 332.6 554.82C277.94 554.82 233.58 510.45 233.58 455.8C233.58 401.15 277.94 356.78 332.6 356.78C387.25 356.78 431.61 401.15 431.61 455.8Z" id="hhCAI8xpj"></path><path d="M366.01 455.8C366.01 474.24 351.04 489.21 332.6 489.21C314.15 489.21 299.18 474.24 299.18 455.8C299.18 437.36 314.15 422.39 332.6 422.39C351.04 422.39 366.01 437.36 366.01 455.8Z" id="c247bV6U6U"></path><path d="M367.83 344.63C367.83 364.08 352.04 379.87 332.6 379.87C313.15 379.87 297.36 364.08 297.36 344.63C297.36 325.19 313.15 309.4 332.6 309.4C352.04 309.4 367.83 325.19 367.83 344.63Z" id="e1w8U4Uzx"></path><path d="M278.08 512.46C278.08 531.9 262.29 547.69 242.85 547.69C223.4 547.69 207.61 531.9 207.61 512.46C207.61 493.01 223.4 477.22 242.85 477.22C262.29 477.22 278.08 493.01 278.08 512.46Z" id="cfGlfC1E3"></path><path d="M466.85 510.19C466.85 529.63 451.06 545.42 431.61 545.42C412.17 545.42 396.38 529.63 396.38 510.19C396.38 490.74 412.17 474.95 431.61 474.95C451.06 474.95 466.85 490.74 466.85 510.19Z" id="arRJAjBs3"></path><path d="M443.16 510.19C443.16 516.56 437.98 521.73 431.61 521.73C425.24 521.73 420.07 516.56 420.07 510.19C420.07 503.82 425.24 498.65 431.61 498.65C437.98 498.65 443.16 503.82 443.16 510.19Z" id="a145njyw2e"></path><path d="M344.14 344.63C344.14 351 338.97 356.17 332.6 356.17C326.22 356.17 321.05 351 321.05 344.63C321.05 338.26 326.22 333.09 332.6 333.09C338.97 333.09 344.14 338.26 344.14 344.63Z" id="b2AXaFJ3"></path><path d="M254.39 512.46C254.39 518.83 249.22 524 242.85 524C236.48 524 231.31 518.83 231.31 512.46C231.31 506.09 236.48 500.92 242.85 500.92C249.22 500.92 254.39 506.09 254.39 512.46Z" id="f3vF7mpKNn"></path><path d="M58.04 610.49C58.04 618.17 51.81 624.41 44.12 624.41C36.44 624.41 30.21 618.17 30.21 610.49C30.21 602.81 36.44 596.57 44.12 596.57C51.81 596.57 58.04 602.81 58.04 610.49Z" id="d1u2gzFwCs"></path><path d="M641.24 606.06C641.24 613.74 635.01 619.97 627.33 619.97C619.64 619.97 613.41 613.74 613.41 606.06C613.41 598.37 619.64 592.14 627.33 592.14C635.01 592.14 641.24 598.37 641.24 606.06Z" id="b7XhIBTAWX"></path><path d="M286.02 214.68C289.41 214.68 292.17 217.43 292.17 220.83C292.17 222.06 292.17 219.6 292.17 220.83C292.17 224.23 289.41 226.98 286.02 226.98C275.19 226.98 248.84 226.98 238.01 226.98C234.61 226.98 231.86 224.23 231.86 220.83C231.86 219.6 231.86 222.06 231.86 220.83C231.86 217.43 234.61 214.68 238.01 214.68C248.84 214.68 275.19 214.68 286.02 214.68Z" id="cQVVTFwIW"></path><path d="M417.08 213.5C420.8 213.5 423.82 216.52 423.82 220.24C423.82 221.59 423.82 218.89 423.82 220.24C423.82 223.96 420.8 226.98 417.08 226.98C406.36 226.98 380.96 226.98 370.25 226.98C366.53 226.98 363.51 223.96 363.51 220.24C363.51 218.89 363.51 221.59 363.51 220.24C363.51 216.52 366.53 213.5 370.25 213.5C380.96 213.5 406.36 213.5 417.08 213.5Z" id="bbS8YHXFt"></path><path d="M328.16 356.78C351.16 354.62 371.03 365.55 372.49 381.16C373.96 396.77 356.47 411.19 333.46 413.35C310.46 415.5 290.59 404.58 289.13 388.97C287.67 373.36 305.15 358.94 328.16 356.78Z" id="c5pN6Bw97"></path><path d="M293.37 480.6C308.71 504.28 312.44 529.17 301.69 536.14C290.93 543.11 269.74 529.54 254.39 505.86C239.04 482.17 235.31 457.29 246.07 450.32C256.83 443.35 278.02 456.91 293.37 480.6Z" id="a9EFZ3MMT"></path><path d="M424.12 498.65C415.3 520 396.38 532.48 381.88 526.49C367.39 520.51 362.79 498.31 371.62 476.95C380.44 455.6 399.36 443.12 413.86 449.11C428.35 455.09 432.95 477.29 424.12 498.65Z" id="b25eFYkTjP"></path></defs><g visibility="inherit"><g visibility="inherit"><g visibility="inherit"><use xlink:href="#c509prXNq" opacity="1" fill="#000000" fill-opacity="1"></use></g><g visibility="inherit"><g><use xlink:href="#bMGOM0bm8" opacity="1" fill-opacity="0" stroke="#ffffff" stroke-width="12" stroke-opacity="1"></use></g></g><g visibility="inherit"><use xlink:href="#g2bLd1RqZP" opacity="1" fill="#000000" fill-opacity="1"></use><g><use xlink:href="#g2bLd1RqZP" opacity="1" fill-opacity="0" stroke="#000000" stroke-width="8" stroke-opacity="1"></use></g></g><g visibility="inherit"><use xlink:href="#a2AEESP6iB" opacity="1" fill="#ffffff" fill-opacity="1"></use></g><g visibility="inherit"><use xlink:href="#bvRBHccdC" opacity="1" fill="#ffffff" fill-opacity="1"></use></g><g visibility="inherit"><use xlink:href="#g1IRS37eM2" opacity="1" fill="#ffffff" fill-opacity="1"></use></g><g visibility="inherit"><use xlink:href="#e2WjFGvikD" opacity="1" fill="#ffffff" fill-opacity="1"></use></g><g visibility="inherit"><use xlink:href="#hhCAI8xpj" opacity="1" fill="#000000" fill-opacity="1"></use><g><use xlink:href="#hhCAI8xpj" opacity="1" fill-opacity="0" stroke="#ffffff" stroke-width="9" stroke-opacity="1"></use></g></g><g visibility="inherit"><use xlink:href="#c247bV6U6U" opacity="1" fill="#ffffff" fill-opacity="1"></use></g><g visibility="inherit"><use xlink:href="#e1w8U4Uzx" opacity="1" fill="#000000" fill-opacity="1"></use><g><use xlink:href="#e1w8U4Uzx" opacity="1" fill-opacity="0" stroke="#ffffff" stroke-width="8" stroke-opacity="1"></use></g></g><g visibility="inherit"><use xlink:href="#cfGlfC1E3" opacity="1" fill="#000000" fill-opacity="1"></use><g><use xlink:href="#cfGlfC1E3" opacity="1" fill-opacity="0" stroke="#ffffff" stroke-width="8" stroke-opacity="1"></use></g></g><g visibility="inherit"><use xlink:href="#arRJAjBs3" opacity="1" fill="#000000" fill-opacity="1"></use><g><use xlink:href="#arRJAjBs3" opacity="1" fill-opacity="0" stroke="#ffffff" stroke-width="8" stroke-opacity="1"></use></g></g><g visibility="inherit"><use xlink:href="#a145njyw2e" opacity="1" fill="#ffffff" fill-opacity="1"></use></g><g visibility="inherit"><use xlink:href="#b2AXaFJ3" opacity="1" fill="#ffffff" fill-opacity="1"></use></g><g visibility="inherit"><use xlink:href="#f3vF7mpKNn" opacity="1" fill="#ffffff" fill-opacity="1"></use></g><g visibility="inherit"><use xlink:href="#d1u2gzFwCs" opacity="1" fill="#ffffff" fill-opacity="1"></use></g><g visibility="inherit"><use xlink:href="#b7XhIBTAWX" opacity="1" fill="#ffffff" fill-opacity="1"></use></g><g visibility="inherit"><use xlink:href="#cQVVTFwIW" opacity="1" fill="#ffffff" fill-opacity="1"></use></g><g visibility="inherit"><use xlink:href="#bbS8YHXFt" opacity="1" fill="#ffffff" fill-opacity="1"></use></g><g visibility="inherit"><use xlink:href="#c5pN6Bw97" opacity="1" fill="#000000" fill-opacity="1"></use></g><g visibility="inherit"><use xlink:href="#a9EFZ3MMT" opacity="1" fill="#000000" fill-opacity="1"></use></g><g visibility="inherit"><use xlink:href="#b25eFYkTjP" opacity="1" fill="#000000" fill-opacity="1"></use></g></g></g></svg>